<?xml version="1.0" standalone="no"?>
<!DOCTYPE svg PUBLIC "-//W3C//DTD SVG 20010904//EN"
 "http://www.w3.org/TR/2001/REC-SVG-20010904/DTD/svg10.dtd">
<svg version="1.0" xmlns="http://www.w3.org/2000/svg"
 width="114.000000pt" height="114.000000pt" viewBox="0 0 114.000000 114.000000"
 preserveAspectRatio="xMidYMid meet">
<metadata>
Created by potrace 1.11, written by Peter Selinger 2001-2013
</metadata>
<g transform="translate(0.000000,114.000000) scale(0.100000,-0.100000)"
fill="#000000" stroke="none">
<path d="M0 570 l0 -360 78 0 78 0 -1 230 c0 127 1 230 3 230 1 0 47 -68 101
-151 l98 -150 102 153 101 153 1 -60 c0 -33 0 -138 0 -232 l0 -173 80 0 79 0
0 108 0 107 96 2 c126 3 184 22 244 82 96 97 96 246 -1 343 -68 68 -104 76
-329 74 l-185 -1 -90 -147 c-49 -81 -92 -147 -95 -147 -3 0 -46 66 -95 147
l-90 147 -88 3 -87 3 0 -361z m893 207 c76 -21 102 -105 52 -165 -29 -35 -58
-43 -152 -44 l-68 -1 -3 110 -3 110 68 0 c37 1 85 -4 106 -10z"/>
</g>
</svg>
