<?xml version="1.0" encoding="UTF-8"?>
<svg width="18px" height="18px" viewBox="0 0 18 18" version="1.1" xmlns="http://www.w3.org/2000/svg" xmlns:xlink="http://www.w3.org/1999/xlink">
    <!-- Generator: Sketch 48.1 (47250) - http://www.bohemiancoding.com/sketch -->
    <title>In-Black-0p75in-R</title>
    <desc>Created with Sketch.</desc>
    <defs></defs>
    <g id="LandingPage" stroke="none" stroke-width="1" fill="none" fill-rule="evenodd" transform="translate(-119.000000, -236.000000)">
        <g id="LANDING---HEADER" fill="#979797" >
            <g id="Heading" transform="translate(102.000000, 104.000000)">
                <g id="LINKEDIN---CLICK" transform="translate(2.000000, 116.000000)">
                    <g id="In-Black-0p75in-R" transform="translate(15.000000, 16.000000)">
                        <g id="Group-5">
                            <path d="M18,17.9678646 L14.2713654,17.9678646 L14.2713654,12.1308701 C14.2713654,10.7388031 14.2466817,8.94853683 12.332997,8.94853683 C10.3918342,8.94853683 10.0956299,10.4658853 10.0956299,12.0312039 L10.0956299,17.9678646 L6.36699527,17.9678646 L6.36699527,5.96600171 L9.94473337,5.96600171 L9.94473337,7.60723434 L9.99596367,7.60723434 C10.4938291,6.66319957 11.7107817,5.66840022 13.5252659,5.66840022 C17.3028021,5.66840022 18,8.15353567 18,11.3852364 L18,17.9678646 Z M2.16191881,4.32616627 C0.966389816,4.32616627 1.88293825e-13,3.35698207 1.88293825e-13,2.16378173 C1.88293825e-13,0.969184196 0.966389816,1.10844667e-12 2.16191881,1.10844667e-12 C3.35418769,1.10844667e-12 4.32337189,0.969184196 4.32337189,2.16378173 C4.32337189,3.35698207 3.35418769,4.32616627 2.16191881,4.32616627 Z M0.2962043,17.9678646 L4.02763332,17.9678646 L4.02763332,5.96600171 L0.2962043,5.96600171 L0.2962043,17.9678646 Z" id="Fill-4"></path>
                        </g>
                    </g>
                </g>
            </g>
        </g>
    </g>
</svg>
