<?xml version="1.0" encoding="UTF-8"?>
<svg width="33px" height="21px" viewBox="0 0 33 21" version="1.1" xmlns="http://www.w3.org/2000/svg" xmlns:xlink="http://www.w3.org/1999/xlink">
    <!-- Generator: Sketch 53.2 (72643) - https://sketchapp.com -->
    <title>MP</title>
    <desc>Created with Sketch.</desc>
    <g id="Page-1" stroke="none" stroke-width="1" fill="none" fill-rule="evenodd">
        <g id="MP" fill="#000000" fill-rule="nonzero">
            <path d="M16.3989127,0 L24.9589556,0 C29.9696064,0 33,2.9268523 33,7.15452785 C33,12.0030508 29.219509,14.4864407 24.5088971,14.4864407 L20.9984412,14.4864407 L20.9984412,20.6949153 L16.377841,20.6949153 L16.377841,7.23537446 L10.501364,16.0237772 L10.3813484,16.0237772 L4.53058846,7.2727845 L4.53058846,20.6949153 L0,20.6949153 L0,0 L4.98064691,0 L10.501364,8.75099274 L16.022081,0 L16.3989127,0 Z M20.9984412,10.4361501 L24.6589166,10.4361501 C26.9692167,10.4361501 28.3193921,9.07619855 28.3193921,7.30234867 L28.3193921,7.24322034 C28.3193921,5.20329298 26.879205,4.10941889 24.5689049,4.10941889 L20.9984412,4.10941889 L20.9984412,10.4361501 Z"></path>
        </g>
    </g>
</svg>