<?xml version="1.0" encoding="UTF-8"?>
<svg width="43px" height="38px" viewBox="0 0 43 38" version="1.1" xmlns="http://www.w3.org/2000/svg" xmlns:xlink="http://www.w3.org/1999/xlink">
    <!-- Generator: Sketch 53.2 (72643) - https://sketchapp.com -->
    <title>MPD</title>
    <desc>Created with Sketch.</desc>
    <g id="MPD" stroke="none" stroke-width="1" fill="none" fill-rule="evenodd">
        <path d="M21.3682802,0 L32.5222755,0 C39.0513053,0 43,3.81857143 43,9.33428571 C43,15.66 38.0739056,18.9 31.9358357,18.9 L27.3616052,18.9 L27.3616052,27 L21.3408232,27 L21.3408232,9.43976373 L13.6835955,20.9057143 L13.5272115,20.9057143 L5.90349405,9.48857143 L5.90349405,27 L0,27 L0,0 L6.48993385,0 L13.6835955,11.4171429 L20.8772571,0 L21.3682802,0 Z M27.3616052,13.6157143 L32.1313156,13.6157143 C35.1417066,13.6157143 36.901026,11.8414286 36.901026,9.52714286 L36.901026,9.45 C36.901026,6.78857143 35.0244186,5.36142857 32.0140276,5.36142857 L27.3616052,5.36142857 L27.3616052,13.6157143 Z" id="MPblacklogo" fill="#000000"></path>
        <path d="M-4.4408921e-16,38 L-4.4408921e-16,31 L1.65,31 C3.99,31 5.38,32.31 5.38,34.5 C5.38,36.78 3.96,38 1.65,38 L-4.4408921e-16,38 Z M1.11,37.03 L1.76,37.03 C3.26,37.03 4.23,36.17 4.23,34.5 C4.23,32.89 3.26,31.98 1.76,31.98 L1.11,31.98 L1.11,37.03 Z M8.01999994,38 L8.01999994,31 L9.12999994,31 L9.12999994,38 L8.01999994,38 Z M15.3599999,30.87 C16.8399999,30.87 17.6699999,31.56 18.0299999,31.96 L17.3299999,32.69 C17.0599999,32.42 16.4499999,31.9 15.3999999,31.9 C13.9099999,31.9 12.9399999,33.02 12.9399999,34.49 C12.9399999,36.05 13.9899999,37.1 15.3999999,37.1 C16.4699999,37.1 17.0799999,36.66 17.2599999,36.47 L17.2599999,35.29 L15.8199999,35.29 L15.8199999,34.34 L18.3099999,34.34 L18.3099999,37.01 C17.5599999,37.71 16.6699999,38.13 15.3399999,38.13 C13.3499999,38.13 11.7799999,36.67 11.7799999,34.5 C11.7799999,32.47 13.2699999,30.87 15.3599999,30.87 Z M21.1399998,38 L21.1399998,31 L22.2499998,31 L22.2499998,38 L21.1399998,38 Z M26.5099998,38 L26.5099998,32 L24.7499998,32 L24.7499998,31 L29.3799998,31 L29.3799998,32 L27.6199998,32 L27.6199998,38 L26.5099998,38 Z M35.1299997,35.96 L32.5699997,35.96 L31.8399997,38 L30.7199997,38 L33.2699997,31 L34.4199997,31 L36.9699997,38 L35.8499997,38 L35.1299997,35.96 Z M34.8199997,35.03 L33.8499997,32.2 L32.8799997,35.03 L34.8199997,35.03 Z M39.37,38 L39.37,31 L40.48,31 L40.48,37 L43,37 L43,38 L39.37,38 Z" id="DIGITAL" fill="#000000" fill-rule="nonzero"></path>
    </g>
</svg>