<?xml version="1.0" encoding="UTF-8"?>
<svg width="49px" height="50px" viewBox="0 0 49 50" version="1.1" xmlns="http://www.w3.org/2000/svg" xmlns:xlink="http://www.w3.org/1999/xlink">
    <!-- Generator: Sketch 48.2 (47327) - http://www.bohemiancoding.com/sketch -->
    <title>pie-chart</title>
    <desc>Created with Sketch.</desc>
    <defs></defs>
    <g id="HOME-Copy" stroke="none" stroke-width="1" fill="none" fill-rule="evenodd" transform="translate(-256.000000, -393.000000)">
        <g id="Text" transform="translate(103.000000, 330.000000)" fill="#FFFFFF" fill-rule="nonzero">
            <g id="Group">
                <g id="pie-chart" transform="translate(153.000000, 63.000000)">
                    <path d="M42.6030103,26.6030103 L23.3969897,26.6030103 L23.3969897,7.39698965 C23.3969897,6.62088429 22.7761054,6 22,6 C9.87206021,6 0,15.8720602 0,28 C0,40.1279398 9.87206021,50 22,50 C34.1279398,50 44,40.1279398 44,28 C44,27.2342427 43.3687676,26.6030103 42.6030103,26.6030103 Z M22,47.2060207 C11.4139229,47.2060207 2.7939793,38.5860771 2.7939793,28 C2.7939793,17.8795861 10.6585136,9.55973659 20.6030103,8.84571966 L20.6030103,28 C20.6030103,28.7761054 21.2238946,29.3969897 22,29.3969897 L41.1542803,29.3969897 C40.4402634,39.3414864 32.1204139,47.2060207 22,47.2060207 Z" id="Shape"></path>
                    <path d="M49,22.4927023 C48.979655,17.0154799 47.0570544,11.7399381 43.5882353,7.63202123 C39.4785493,2.78107032 33.5785051,0 27.3732862,0 C26.6103494,0 26,0.636886333 26,1.43299425 L26,22.5670057 C26,23.3631137 26.6103494,24 27.3732862,24 L47.6267138,24 C48.3896506,24 49,23.3631137 49,22.5670057 C49,22.5457762 49,22.5245467 49,22.4927023 Z M28.7465723,21.1446263 L28.7465723,2.92967713 C33.6497125,3.30119416 38.247678,5.66828837 41.5232198,9.54268023 C44.2697921,12.7801858 45.8973905,16.8562583 46.2025652,21.1446263 L28.7465723,21.1446263 Z" id="Shape"></path>
                </g>
            </g>
        </g>
    </g>
</svg>